<?xml version="1.0" standalone="no"?>
<!DOCTYPE svg PUBLIC "-//W3C//DTD SVG 20010904//EN"
 "http://www.w3.org/TR/2001/REC-SVG-20010904/DTD/svg10.dtd">
<svg version="1.0" xmlns="http://www.w3.org/2000/svg"
 width="30.000000pt" height="30.000000pt" viewBox="0 0 30.000000 30.000000"
 preserveAspectRatio="xMidYMid meet">

<g transform="translate(0.000000,30.000000) scale(0.100000,-0.100000)"
fill="#000000" stroke="none">
<path d="M69 273 c-39 -24 -59 -65 -59 -120 0 -53 25 -104 61 -123 30 -16 121
-8 154 14 15 10 36 38 47 63 l20 45 -23 47 c-39 76 -138 113 -200 74z m109
-26 c43 -40 48 -110 11 -178 -11 -22 -11 -23 4 -11 40 33 45 125 10 178 -8 13
-11 24 -6 24 14 0 48 -40 66 -78 15 -32 15 -36 -4 -77 -20 -42 -39 -56 -84
-62 -11 -1 -34 -5 -51 -9 -26 -5 -38 -1 -64 23 -63 56 -49 177 23 208 37 16
63 11 95 -18z"/>
<path d="M87 244 c-3 -3 -3 -13 0 -22 4 -15 3 -15 -6 -2 -9 13 -12 12 -25 -5
-27 -36 -20 -55 20 -55 19 0 33 4 30 8 -3 5 1 9 9 9 8 0 15 -4 15 -9 0 -4 16
-8 34 -8 34 0 35 1 25 29 -15 44 -79 78 -102 55z m43 -16 c0 -7 -4 -19 -9 -26
-7 -11 -10 -10 -15 3 -10 26 -7 35 9 35 8 0 15 -6 15 -12z m-55 -56 c-22 -5
-27 1 -19 23 7 17 8 17 21 -1 12 -17 12 -19 -2 -22z m105 12 c0 -8 -9 -14 -20
-14 -18 0 -19 3 -10 20 12 22 30 18 30 -6z"/>
<path d="M40 132 c0 -10 7 -28 16 -41 13 -18 18 -20 25 -10 7 11 9 10 9 -3 0
-46 89 -3 105 50 6 20 3 22 -29 22 -21 0 -36 -5 -36 -12 0 -9 -3 -9 -12 0 -7
7 -27 12 -45 12 -25 0 -33 -4 -33 -18z m50 1 c0 -5 -5 -15 -10 -23 -9 -13 -11
-13 -19 0 -7 10 -6 17 2 22 15 10 27 10 27 1z m88 -10 c-4 -22 -22 -20 -26 1
-2 10 3 16 13 16 10 0 15 -7 13 -17z m-53 -51 c-22 -5 -27 1 -19 23 7 17 8 17
21 -1 12 -17 12 -19 -2 -22z"/>
</g>
</svg>
